name pl12_filtered_grf.mot
datacolumns 37
datarows 11
range 0.492000 0.497000
endheader
time	1_ground_force_vx	1_ground_force_vy	1_ground_force_vz	1_ground_force_px	1_ground_force_py	1_ground_force_pz	1_ground_torque_x	1_ground_torque_y	1_ground_torque_z	2_ground_force_vx	2_ground_force_vy	2_ground_force_vz	2_ground_force_px	2_ground_force_py	2_ground_force_pz	2_ground_torque_x	2_ground_torque_y	2_ground_torque_z	3_ground_force_vx	3_ground_force_vy	3_ground_force_vz	3_ground_force_px	3_ground_force_py	3_ground_force_pz	3_ground_torque_x	3_ground_torque_y	3_ground_torque_z	4_ground_force_vx	4_ground_force_vy	4_ground_force_vz	4_ground_force_px	4_ground_force_py	4_ground_force_pz	4_ground_torque_x	4_ground_torque_y	4_ground_torque_z
            0.492000	            0.009148	           -0.044810	           -0.047309	            0.089498	            0.000000	            0.244568	           -0.029377	           -0.023290	            0.016452	           -0.023177	            0.023575	            0.042562	           -0.155022	            0.000000	            0.264107	            0.004257	           -0.004495	            0.003129	           20.808086	            1.774894	            0.634392	            0.375985	            1.310961	            1.914092	           -0.096250	           -0.008210	           -0.002934	          -18.046575	           -0.583100	            1.704565	           -0.265352	            1.310035	            1.925384	            0.008492	            0.000274	           -0.000802
            0.492500	            0.011979	           -0.065557	           -0.064956	            0.089498	            0.000000	            0.244568	           -0.042965	           -0.031364	            0.023919	           -0.023990	            0.000786	            0.033265	           -0.155022	            0.000000	            0.264107	            0.001366	           -0.002531	           -0.000140	           20.804308	            1.785654	            0.639694	            0.375984	            1.310957	            1.914087	           -0.095863	           -0.008228	           -0.002948	          -18.060360	           -0.589561	            1.706752	           -0.265347	            1.310035	            1.925383	            0.008622	            0.000281	           -0.000815
            0.493000	            0.014908	           -0.087285	           -0.083331	            0.089498	            0.000000	            0.244568	           -0.057196	           -0.039754	            0.031734	           -0.024593	           -0.023920	            0.022807	           -0.155022	            0.000000	            0.264107	           -0.001782	           -0.000372	           -0.003681	           20.801829	            1.796841	            0.644883	            0.375982	            1.310951	            1.914081	           -0.095481	           -0.008248	           -0.002960	          -18.075178	           -0.597000	            1.708949	           -0.265342	            1.310034	            1.925382	            0.008778	            0.000290	           -0.000830
            0.493500	            0.017911	           -0.109827	           -0.102285	            0.089498	            0.000000	            0.244568	           -0.071959	           -0.048387	            0.039839	           -0.024964	           -0.050420	            0.011209	           -0.155022	            0.000000	            0.264107	           -0.005173	            0.001971	           -0.007477	           20.800665	            1.808369	            0.649597	            0.375979	            1.310945	            1.914074	           -0.095108	           -0.008269	           -0.002970	          -18.090926	           -0.605331	            1.710951	           -0.265336	            1.310034	            1.925381	            0.008957	            0.000300	           -0.000847
            0.494000	            0.020959	           -0.132991	           -0.121647	            0.089498	            0.000000	            0.244568	           -0.087130	           -0.057187	            0.048163	           -0.025078	           -0.078559	           -0.001489	           -0.155022	            0.000000	            0.264107	           -0.008789	            0.004488	           -0.011504	           20.800817	            1.820136	            0.653771	            0.375977	            1.310939	            1.914068	           -0.094751	           -0.008291	           -0.002978	          -18.107473	           -0.614456	            1.712774	           -0.265331	            1.310033	            1.925380	            0.009155	            0.000311	           -0.000866
            0.494500	            0.024020	           -0.156562	           -0.141229	            0.089498	            0.000000	            0.244568	           -0.102567	           -0.066064	            0.056629	           -0.024913	           -0.108148	           -0.015233	           -0.155022	            0.000000	            0.264107	           -0.012606	            0.007164	           -0.015736	           20.802279	            1.832035	            0.657347	            0.375974	            1.310934	            1.914062	           -0.094411	           -0.008315	           -0.002983	          -18.124687	           -0.624273	            1.714438	           -0.265326	            1.310033	            1.925379	            0.009369	            0.000323	           -0.000886
            0.495000	            0.027062	           -0.180302	           -0.160824	            0.089498	            0.000000	            0.244568	           -0.118114	           -0.074923	            0.065152	           -0.024446	           -0.138969	           -0.029952	           -0.155022	            0.000000	            0.264107	           -0.016598	            0.009982	           -0.020141	           20.805036	            1.843959	            0.660269	            0.375972	            1.310928	            1.914056	           -0.094094	           -0.008340	           -0.002986	          -18.142431	           -0.634671	            1.715968	           -0.265321	            1.310033	            1.925378	            0.009597	            0.000336	           -0.000908
            0.495500	            0.030046	           -0.203953	           -0.180205	            0.089498	            0.000000	            0.244568	           -0.133603	           -0.083660	            0.073637	           -0.023659	           -0.170770	           -0.045560	           -0.155022	            0.000000	            0.264107	           -0.020733	            0.012920	           -0.024682	           20.809062	            1.855792	            0.662709	            0.375967	            1.310920	            1.914048	           -0.093804	           -0.008366	           -0.002987	          -18.160547	           -0.645541	            1.717565	           -0.265315	            1.310032	            1.925376	            0.009834	            0.000350	           -0.000930
            0.496000	            0.032933	           -0.227234	           -0.199133	            0.089498	            0.000000	            0.244568	           -0.148848	           -0.092165	            0.081985	           -0.022533	           -0.203265	           -0.061949	           -0.155022	            0.000000	            0.264107	           -0.024975	            0.015956	           -0.029320	           20.814335	            1.867434	            0.664418	            0.375963	            1.310913	            1.914041	           -0.093544	           -0.008393	           -0.002986	          -18.178908	           -0.656765	            1.719088	           -0.265309	            1.310032	            1.925375	            0.010080	            0.000364	           -0.000953
            0.496500	            0.035683	           -0.249845	           -0.217351	            0.089498	            0.000000	            0.244568	           -0.163655	           -0.100321	            0.090086	           -0.021054	           -0.236139	           -0.078997	           -0.155022	            0.000000	            0.264107	           -0.029284	            0.019062	           -0.034008	           20.820823	            1.878780	            0.665360	            0.375959	            1.310906	            1.914034	           -0.093319	           -0.008421	           -0.002982	          -18.197366	           -0.668229	            1.720566	           -0.265303	            1.310032	            1.925374	            0.010329	            0.000379	           -0.000977
            0.497000	            0.038252	           -0.271470	           -0.234590	            0.089498	            0.000000	            0.244568	           -0.177815	           -0.108002	            0.097827	           -0.019207	           -0.269045	           -0.096562	           -0.155022	            0.000000	            0.264107	           -0.033617	            0.022208	           -0.038696	           20.828490	            1.889728	            0.665504	            0.375955	            1.310898	            1.914027	           -0.093130	           -0.008449	           -0.002976	          -18.215769	           -0.679818	            1.722031	           -0.265298	            1.310032	            1.925372	            0.010580	            0.000395	           -0.001000
